<svg enable-background="new 0 0 512 512" height="512" viewBox="0 0 512 512" width="512" xmlns="http://www.w3.org/2000/svg"><g><path d="m243.322 8.808c-.719-.36-18-8.808-51.451-8.808-23.381 0-68.313 4.427-106.551 34.076-37.535 29.104-58.013 73.925-60.96 133.285-8.634 22.569-13.96 46.383-15.701 70.644-.296 4.131 2.813 7.721 6.944 8.018.183.013.364.02.544.02 3.897 0 7.189-3.015 7.473-6.964 1.373-19.136 5.122-37.975 11.09-56.075 12.25-1.796 65.278-13.13 110.22-78.046 50.967-73.62 95.401-81.894 96.187-82.029 3.215-.499 5.745-3.015 6.257-6.232.515-3.233-1.125-6.426-4.052-7.889zm-159.654 46.484v22.445c-12.331 11.92-23.47 25.099-33.138 39.374-1.765 2.605-3.471 5.246-5.131 7.912 7.715-31.225 21.712-53.641 38.269-69.731zm-42.755 111.072c5.685-13.644 12.678-26.758 20.904-39.138h44.853c-15.677 15.24-30.748 24.628-42.295 30.282-9.434 4.62-17.572 7.308-23.462 8.856zm91.685-69.946c-3.961 5.722-7.989 10.973-12.032 15.807h-47.883c21.139-26.903 48.031-48.999 78.592-64.404 3.699-1.864 5.186-6.375 3.321-10.073-1.865-3.7-6.375-5.187-10.073-3.321-16.367 8.25-31.745 18.305-45.854 29.902v-21.529c34.589-24.594 74.831-27.8 93.202-27.8 9.41 0 17.354.728 23.817 1.723-19.86 10.259-50.348 32.401-83.09 79.695z"/><path d="m272.922 23.621c19.136 1.373 37.976 5.122 56.076 11.09 1.747 11.885 12.486 62.173 72.452 106.23 3.337 2.453 8.033 1.735 10.484-1.604 2.453-3.338 1.735-8.032-1.604-10.484-3.729-2.74-7.229-5.509-10.556-8.29v-47.88c26.903 21.139 48.999 48.031 64.404 78.592 1.319 2.616 3.961 4.125 6.703 4.125 1.135 0 2.287-.258 3.37-.804 3.699-1.864 5.186-6.375 3.321-10.073-8.25-16.367-18.305-31.745-29.902-45.854h21.532c24.593 34.589 27.798 74.831 27.798 93.202 0 9.419-.729 17.37-1.725 23.835-8.394-16.274-24.722-39.637-56.184-65.225-3.214-2.613-7.938-2.128-10.551 1.086-2.614 3.213-2.127 7.938 1.086 10.551 52.939 43.058 59.392 78.675 59.443 78.979.492 3.23 3.02 5.771 6.248 6.279.392.062.782.092 1.17.092 2.806 0 5.421-1.578 6.705-4.146.36-.719 8.808-18 8.808-51.451 0-23.381-4.427-68.313-34.076-106.551-29.104-37.535-73.925-58.012-133.284-60.96-22.569-8.634-46.383-13.96-70.644-15.701-4.116-.295-7.721 2.812-8.018 6.944-.297 4.132 2.813 7.722 6.944 8.018zm72.757 17.31c13.629 5.682 26.728 12.669 39.096 20.886v44.851c-25.644-26.426-35.46-52.124-39.096-65.737zm111.034 42.737h-22.449c-11.92-12.331-25.099-23.47-39.374-33.138-2.607-1.765-5.249-3.473-7.916-5.134 31.229 7.715 53.647 21.713 69.739 38.272z"/><path d="m496.396 265.978c-4.116-.283-7.721 2.812-8.018 6.944-1.373 19.136-5.122 37.975-11.09 56.075-12.25 1.796-65.278 13.13-110.22 78.046-50.967 73.62-95.401 81.894-96.187 82.029-3.215.499-5.745 3.015-6.257 6.232-.515 3.231 1.125 6.424 4.053 7.887.719.36 18 8.808 51.451 8.808 23.381 0 68.313-4.427 106.551-34.076 37.535-29.104 58.012-73.925 60.96-133.284 8.634-22.569 13.96-46.383 15.701-70.644.297-4.131-2.812-7.721-6.944-8.017zm-25.309 79.658c-5.685 13.644-12.678 26.758-20.904 39.138h-44.853c15.677-15.24 30.748-24.628 42.295-30.282 9.434-4.62 17.572-7.308 23.462-8.856zm-174.775 149.641c19.86-10.259 50.348-32.401 83.09-79.696 3.961-5.722 7.989-10.973 12.032-15.807h47.883c-21.139 26.903-48.031 48.999-78.592 64.404-3.699 1.864-5.186 6.375-3.321 10.073 1.319 2.616 3.961 4.125 6.703 4.125 1.135 0 2.287-.258 3.37-.804 16.367-8.25 31.745-18.305 45.854-29.902v21.53c-34.589 24.594-74.831 27.8-93.202 27.8-9.41 0-17.354-.728-23.817-1.723zm132.02-38.568v-22.445c12.331-11.92 23.47-25.099 33.138-39.374 1.765-2.605 3.471-5.246 5.131-7.912-7.715 31.224-21.712 53.64-38.269 69.731z"/><path d="m239.078 488.379c-39.918-2.864-78.544-16.066-111.853-38.196v-44.938c12.178 12.48 22.022 26.05 29.397 40.604 1.872 3.695 6.386 5.172 10.08 3.3 3.695-1.872 5.172-6.385 3.3-10.08-13.968-27.564-35.853-51.789-65.046-72-73.908-51.167-81.958-95.75-82.022-96.142-.482-3.237-3.007-5.787-6.239-6.302-3.233-.515-6.424 1.125-7.887 4.053-.36.719-8.808 18-8.808 51.451 0 22.867 4.254 66.891 32.748 104.811 29.012 38.61 74.306 59.697 134.625 62.705 22.565 8.631 46.376 13.956 70.632 15.697.183.013.364.02.544.02 3.897 0 7.189-3.015 7.473-6.964.297-4.133-2.813-7.723-6.944-8.019zm-224.078-168.25c0-9.41.728-17.356 1.722-23.817 10.26 19.86 32.401 50.348 79.696 83.091 5.565 3.853 10.825 7.865 15.807 12.014v47.901c-26.903-21.139-48.999-48.031-64.404-78.592-1.865-3.7-6.375-5.187-10.073-3.321-3.699 1.864-5.186 6.375-3.321 10.073 8.25 16.367 18.305 31.745 29.902 45.854h-21.494c-24.665-34.668-27.835-74.995-27.835-93.203zm40.332 108.203h22.404c11.92 12.331 25.099 23.47 39.374 33.138 2.579 1.747 5.193 3.437 7.832 5.082-31.146-7.724-53.542-21.691-69.61-38.22z"/><path d="m244.644 313.138v-118.714c0-4.142-3.358-7.5-7.5-7.5s-7.5 3.358-7.5 7.5v118.714c0 4.142 3.358 7.5 7.5 7.5s7.5-3.358 7.5-7.5z"/><path d="m165.231 186.924h-34.483c-4.142 0-7.5 3.358-7.5 7.5v118.714c0 1.995.795 3.908 2.208 5.315 1.406 1.4 3.309 2.185 5.292 2.185h.033c.317-.001 31.837-.141 40.473-.141 21.755 0 39.454-17.699 39.454-39.454 0-15.014-8.432-28.094-20.808-34.759 6.268-6.299 10.148-14.976 10.148-24.543 0-19.199-15.619-34.817-34.817-34.817zm0 15c10.927 0 19.816 8.89 19.816 19.816s-8.89 19.816-19.816 19.816c-2.523 0-26.983.032-26.983.032v-39.665h26.983zm6.023 103.573c-6.013 0-23.034.067-33.006.109v-48.961c4.173-.017 33.006-.056 33.006-.056 13.484 0 24.454 10.97 24.454 24.454s-10.97 24.454-24.454 24.454z"/><path d="m331.39 320.638c36.865 0 66.857-29.992 66.857-66.857s-29.992-66.857-66.857-66.857-66.857 29.992-66.857 66.857 29.991 66.857 66.857 66.857zm0-118.714c28.594 0 51.857 23.263 51.857 51.857s-23.263 51.857-51.857 51.857-51.857-23.263-51.857-51.857 23.262-51.857 51.857-51.857z"/></g></svg>