<svg id="Capa_1" enable-background="new 0 0 512 512" height="512" viewBox="0 0 512 512" width="512" xmlns="http://www.w3.org/2000/svg"><g><path d="m256 91.001c-90.981 0-165 74.019-165 165s74.019 165 165 165 165-74.019 165-165-74.018-165-165-165zm0 300c-74.439 0-135-60.561-135-135s60.561-135 135-135 135 60.561 135 135-60.56 135-135 135z"/><path d="m485.901 256.001c0-19.718 7.744-38.467 21.805-52.793 3.732-3.803 5.167-9.3 3.77-14.441s-5.417-9.155-10.561-10.546c-20.83-5.63-38.82-18.609-48.124-34.72-10.871-18.829-14.248-38.854-9.509-56.387 1.401-5.185-.076-10.723-3.874-14.521s-9.335-5.275-14.521-3.874c-19.052 5.148-39.079 2.484-56.386-7.508-17.191-9.928-29.521-25.989-34.721-45.225-1.391-5.144-5.404-9.163-10.546-10.561-5.145-1.4-10.639.037-14.441 3.77-14.327 14.062-33.076 21.806-52.793 21.806s-38.466-7.744-52.793-21.805c-3.803-3.732-9.3-5.17-14.441-3.77-5.142 1.397-9.155 5.417-10.546 10.561-5.199 19.235-17.529 35.297-34.72 45.224-17.307 9.993-37.331 12.661-56.386 7.509-5.183-1.401-10.722.076-14.521 3.874-3.798 3.797-5.275 9.335-3.874 14.521 4.739 17.533 1.361 37.559-9.51 56.386-9.303 16.111-27.293 29.091-48.124 34.721-5.144 1.391-9.163 5.404-10.561 10.546s.037 10.639 3.77 14.441c14.062 14.325 21.806 33.074 21.806 52.792s-7.744 38.467-21.805 52.793c-3.732 3.803-5.167 9.3-3.77 14.441s5.417 9.155 10.561 10.546c20.832 5.63 38.822 18.609 48.124 34.721 10.871 18.826 14.249 38.852 9.51 56.387-1.401 5.185.076 10.723 3.874 14.521 3.799 3.797 9.338 5.276 14.521 3.873 19.059-5.15 39.082-2.484 56.385 7.509 17.19 9.926 29.521 25.987 34.721 45.224 1.391 5.144 5.404 9.163 10.547 10.561 5.141 1.397 10.639-.037 14.441-3.77 14.324-14.061 33.073-21.805 52.792-21.805s38.468 7.744 52.792 21.805c3.816 3.745 9.322 5.163 14.441 3.77 5.143-1.397 9.156-5.417 10.547-10.561 5.199-19.236 17.53-35.298 34.721-45.225 17.304-9.992 37.328-12.659 56.386-7.508 5.185 1.403 10.723-.076 14.521-3.874 3.798-3.797 5.275-9.336 3.874-14.521-4.739-17.534-1.362-37.56 9.509-56.386 9.303-16.111 27.293-29.091 48.124-34.721 5.144-1.391 9.163-5.404 10.561-10.546s-.037-10.639-3.77-14.441c-14.062-14.327-21.806-33.076-21.806-52.793zm-13.417 56.518c-19.466 9.419-35.814 23.904-45.675 40.98-10.711 18.549-16.013 38.311-15.601 57.357-19.948-1.092-39.877 3.655-57.71 13.953-17.694 10.218-31.715 25.061-40.802 42.889-16.856-10.868-36.394-16.697-56.696-16.697s-39.84 5.829-56.697 16.698c-9.087-17.828-23.107-32.671-40.802-42.888-17.834-10.299-37.757-15.041-57.71-13.954.411-19.047-4.89-38.809-15.601-57.356-9.859-17.076-26.208-31.563-45.675-40.981 10.798-16.819 16.585-36.289 16.585-56.519s-5.788-39.7-16.584-56.519c19.466-9.419 35.813-23.904 45.675-40.981 10.711-18.55 16.012-38.311 15.601-57.356 19.949 1.087 39.875-3.656 57.71-13.954 17.694-10.218 31.715-25.061 40.802-42.889 16.857 10.869 36.396 16.699 56.696 16.699s39.839-5.83 56.697-16.699c9.087 17.828 23.107 32.671 40.803 42.89 17.836 10.299 37.764 15.036 57.71 13.953-.413 19.046 4.889 38.807 15.601 57.357 9.861 17.077 26.208 31.562 45.674 40.98-10.796 16.817-16.584 36.288-16.584 56.519s5.788 39.7 16.583 56.518z"/></g></svg>