<svg id="Capa_1" enable-background="new 0 0 512 512" height="512" viewBox="0 0 512 512" width="512" xmlns="http://www.w3.org/2000/svg"><g><path d="m332 346c0-80.786-111.968-273.062-153.289-338.964-2.742-4.378-7.545-7.036-12.711-7.036s-9.969 2.658-12.711 7.036c-41.704 66.513-153.289 258.067-153.289 338.964 0 91.218 74.797 166 166 166 91.218 0 166-74.795 166-166zm-302 0c0-63.916 88.814-224.195 136.001-302.34 47.188 78.142 135.999 238.403 135.999 302.34 0 74.991-61.01 136-136 136s-136-61.009-136-136z"/><path d="m407 0c-57.897 0-105 47.103-105 105s47.103 105 105 105 105-47.103 105-105-47.103-105-105-105zm0 180c-41.355 0-75-33.645-75-75s33.645-75 75-75 75 33.645 75 75-33.645 75-75 75z"/><path d="m426.394 79.394-34.394 34.393-11.894-11.893c-5.857-5.858-15.355-5.858-21.213 0s-5.858 15.355 0 21.213l22.5 22.5c5.857 5.858 15.355 5.859 21.213 0l45-45c5.858-5.858 5.858-15.355 0-21.213-5.857-5.859-15.355-5.859-21.212 0z"/></g></svg>